<?xml version="1.0" encoding="UTF-8" standalone="no"?>
<!DOCTYPE svg PUBLIC "-//W3C//DTD SVG 1.1//EN"
 "http://www.w3.org/Graphics/SVG/1.1/DTD/svg11.dtd">
<!-- Generated by graphviz version 12.0.0 (20240704.0754)
 -->
<!-- Title: packages_ChessGame Pages: 1 -->
<svg width="3009pt" height="764pt"
 viewBox="0.00 0.00 3009.25 764.00" xmlns="http://www.w3.org/2000/svg" xmlns:xlink="http://www.w3.org/1999/xlink">
<g id="graph0" class="graph" transform="scale(1 1) rotate(0) translate(4 760)">
<title>packages_ChessGame</title>
<polygon fill="white" stroke="none" points="-4,4 -4,-760 3005.25,-760 3005.25,4 -4,4"/>
<!-- src -->
<g id="node1" class="node">
<title>src</title>
<polygon fill="none" stroke="black" points="1030,-36 976,-36 976,0 1030,0 1030,-36"/>
<text text-anchor="middle" x="1003" y="-12.57" font-family="Times New Roman,serif" font-size="14.00">src</text>
</g>
<!-- src.alternative -->
<g id="node2" class="node">
<title>src.alternative</title>
<polygon fill="none" stroke="black" points="1140.25,-36 1047.75,-36 1047.75,0 1140.25,0 1140.25,-36"/>
<text text-anchor="middle" x="1094" y="-12.57" font-family="Times New Roman,serif" font-size="14.00">src.alternative</text>
</g>
<!-- src.alternative.game -->
<g id="node3" class="node">
<title>src.alternative.game</title>
<polygon fill="none" stroke="black" points="1283.75,-36 1158.25,-36 1158.25,0 1283.75,0 1283.75,-36"/>
<text text-anchor="middle" x="1221" y="-12.57" font-family="Times New Roman,serif" font-size="14.00">src.alternative.game</text>
</g>
<!-- src.alternative.main_2 -->
<g id="node4" class="node">
<title>src.alternative.main_2</title>
<polygon fill="none" stroke="black" points="1438.38,-36 1301.62,-36 1301.62,0 1438.38,0 1438.38,-36"/>
<text text-anchor="middle" x="1370" y="-12.57" font-family="Times New Roman,serif" font-size="14.00">src.alternative.main_2</text>
</g>
<!-- src.alternative.main_3 -->
<g id="node5" class="node">
<title>src.alternative.main_3</title>
<polygon fill="none" stroke="black" points="1593.38,-36 1456.62,-36 1456.62,0 1593.38,0 1593.38,-36"/>
<text text-anchor="middle" x="1525" y="-12.57" font-family="Times New Roman,serif" font-size="14.00">src.alternative.main_3</text>
</g>
<!-- src.alternative.pyqt_gui -->
<g id="node6" class="node">
<title>src.alternative.pyqt_gui</title>
<polygon fill="none" stroke="black" points="1756.88,-36 1611.12,-36 1611.12,0 1756.88,0 1756.88,-36"/>
<text text-anchor="middle" x="1684" y="-12.57" font-family="Times New Roman,serif" font-size="14.00">src.alternative.pyqt_gui</text>
</g>
<!-- src.alternative.stack_overflow_pygame_gui -->
<g id="node7" class="node">
<title>src.alternative.stack_overflow_pygame_gui</title>
<polygon fill="none" stroke="black" points="2032.75,-36 1775.25,-36 1775.25,0 2032.75,0 2032.75,-36"/>
<text text-anchor="middle" x="1904" y="-12.57" font-family="Times New Roman,serif" font-size="14.00">src.alternative.stack_overflow_pygame_gui</text>
</g>
<!-- src.alternative.tkinter_canvas_gui -->
<g id="node8" class="node">
<title>src.alternative.tkinter_canvas_gui</title>
<polygon fill="none" stroke="black" points="2251.25,-36 2050.75,-36 2050.75,0 2251.25,0 2251.25,-36"/>
<text text-anchor="middle" x="2151" y="-12.57" font-family="Times New Roman,serif" font-size="14.00">src.alternative.tkinter_canvas_gui</text>
</g>
<!-- src.controller -->
<g id="node9" class="node">
<title>src.controller</title>
<polygon fill="none" stroke="black" points="2359.12,-36 2268.88,-36 2268.88,0 2359.12,0 2359.12,-36"/>
<text text-anchor="middle" x="2314" y="-12.57" font-family="Times New Roman,serif" font-size="14.00">src.controller</text>
</g>
<!-- src.controller.chess_step -->
<g id="node10" class="node">
<title>src.controller.chess_step</title>
<polygon fill="none" stroke="black" points="892.12,-684 735.88,-684 735.88,-648 892.12,-648 892.12,-684"/>
<text text-anchor="middle" x="814" y="-660.58" font-family="Times New Roman,serif" font-size="14.00">src.controller.chess_step</text>
</g>
<!-- src.model.enums.color -->
<g id="node21" class="node">
<title>src.model.enums.color</title>
<polygon fill="none" stroke="black" points="1163.12,-756 1018.88,-756 1018.88,-720 1163.12,-720 1163.12,-756"/>
<text text-anchor="middle" x="1091" y="-732.58" font-family="Times New Roman,serif" font-size="14.00">src.model.enums.color</text>
</g>
<!-- src.controller.chess_step&#45;&gt;src.model.enums.color -->
<g id="edge1" class="edge">
<title>src.controller.chess_step&#45;&gt;src.model.enums.color</title>
<path fill="none" stroke="black" d="M883.18,-684.48C922.17,-694.33 971.02,-706.68 1011.56,-716.93"/>
<polygon fill="black" stroke="black" points="1021.04,-719.32 1010.24,-721.23 1017.37,-718.39 1011.34,-716.87 1011.34,-716.87 1011.34,-716.87 1017.37,-718.39 1012.44,-712.51 1021.04,-719.32"/>
</g>
<!-- src.model.enums.piece_type -->
<g id="node23" class="node">
<title>src.model.enums.piece_type</title>
<polygon fill="none" stroke="black" points="481.88,-756 306.12,-756 306.12,-720 481.88,-720 481.88,-756"/>
<text text-anchor="middle" x="394" y="-732.58" font-family="Times New Roman,serif" font-size="14.00">src.model.enums.piece_type</text>
</g>
<!-- src.controller.chess_step&#45;&gt;src.model.enums.piece_type -->
<g id="edge2" class="edge">
<title>src.controller.chess_step&#45;&gt;src.model.enums.piece_type</title>
<path fill="none" stroke="black" d="M735.72,-681.59C731.08,-682.41 726.48,-683.22 722,-684 645.3,-697.28 558.32,-711.29 493.22,-721.56"/>
<polygon fill="black" stroke="black" points="483.35,-723.12 492.52,-717.12 487.08,-722.53 493.22,-721.56 493.22,-721.56 493.22,-721.56 487.08,-722.53 493.92,-726.01 483.35,-723.12"/>
</g>
<!-- src.controller.custom_types_for_type_hinting -->
<g id="node11" class="node">
<title>src.controller.custom_types_for_type_hinting</title>
<polygon fill="none" stroke="black" points="1524.25,-612 1251.75,-612 1251.75,-576 1524.25,-576 1524.25,-612"/>
<text text-anchor="middle" x="1388" y="-588.58" font-family="Times New Roman,serif" font-size="14.00">src.controller.custom_types_for_type_hinting</text>
</g>
<!-- src.controller.game -->
<g id="node12" class="node">
<title>src.controller.game</title>
<polygon fill="none" stroke="black" points="1480.62,-180 1357.38,-180 1357.38,-144 1480.62,-144 1480.62,-180"/>
<text text-anchor="middle" x="1419" y="-156.57" font-family="Times New Roman,serif" font-size="14.00">src.controller.game</text>
</g>
<!-- src.controller.game_saver -->
<g id="node13" class="node">
<title>src.controller.game_saver</title>
<polygon fill="none" stroke="black" points="633,-324 473,-324 473,-288 633,-288 633,-324"/>
<text text-anchor="middle" x="553" y="-300.57" font-family="Times New Roman,serif" font-size="14.00">src.controller.game_saver</text>
</g>
<!-- src.controller.game&#45;&gt;src.controller.game_saver -->
<g id="edge3" class="edge">
<title>src.controller.game&#45;&gt;src.controller.game_saver</title>
<path fill="none" stroke="black" d="M1357.22,-164.35C1159.21,-168.99 551.61,-185.65 523,-216 506.85,-233.13 518.46,-259.25 531.65,-278.76"/>
<polygon fill="black" stroke="black" points="537.43,-286.76 527.92,-281.29 535.21,-283.69 531.57,-278.65 531.57,-278.65 531.57,-278.65 535.21,-283.69 535.22,-276.02 537.43,-286.76"/>
</g>
<!-- src.controller.gui_controller -->
<g id="node14" class="node">
<title>src.controller.gui_controller</title>
<polygon fill="none" stroke="black" points="1974.62,-540 1803.38,-540 1803.38,-504 1974.62,-504 1974.62,-540"/>
<text text-anchor="middle" x="1889" y="-516.58" font-family="Times New Roman,serif" font-size="14.00">src.controller.gui_controller</text>
</g>
<!-- src.controller.game&#45;&gt;src.controller.gui_controller -->
<g id="edge4" class="edge">
<title>src.controller.game&#45;&gt;src.controller.gui_controller</title>
<path fill="none" stroke="black" d="M1481.09,-163.39C1575.67,-167.62 1745,-191.1 1745,-305 1745,-305 1745,-305 1745,-379 1745,-433.93 1798.79,-474.76 1840.62,-498.2"/>
<polygon fill="black" stroke="black" points="1849.34,-502.93 1838.4,-502.12 1846.01,-501.13 1840.54,-498.17 1840.54,-498.17 1840.54,-498.17 1846.01,-501.13 1842.69,-494.21 1849.34,-502.93"/>
</g>
<!-- src.controller.timer_thread -->
<g id="node16" class="node">
<title>src.controller.timer_thread</title>
<polygon fill="none" stroke="black" points="2389.88,-612 2226.12,-612 2226.12,-576 2389.88,-576 2389.88,-612"/>
<text text-anchor="middle" x="2308" y="-588.58" font-family="Times New Roman,serif" font-size="14.00">src.controller.timer_thread</text>
</g>
<!-- src.controller.game&#45;&gt;src.controller.timer_thread -->
<g id="edge5" class="edge">
<title>src.controller.game&#45;&gt;src.controller.timer_thread</title>
<path fill="none" stroke="black" d="M1480.95,-163.38C1657.37,-164.97 2153.53,-173.24 2212,-216 2246.31,-241.09 2247,-262.5 2247,-305 2247,-305 2247,-305 2247,-451 2247,-494.2 2271.13,-539.23 2289.04,-566.7"/>
<polygon fill="black" stroke="black" points="2294.38,-574.64 2285.07,-568.86 2292.27,-571.51 2288.8,-566.35 2288.8,-566.35 2288.8,-566.35 2292.27,-571.51 2292.53,-563.84 2294.38,-574.64"/>
</g>
<!-- src.model.board -->
<g id="node19" class="node">
<title>src.model.board</title>
<polygon fill="none" stroke="black" points="1414.12,-540 1305.88,-540 1305.88,-504 1414.12,-504 1414.12,-540"/>
<text text-anchor="middle" x="1360" y="-516.58" font-family="Times New Roman,serif" font-size="14.00">src.model.board</text>
</g>
<!-- src.controller.game&#45;&gt;src.model.board -->
<g id="edge6" class="edge">
<title>src.controller.game&#45;&gt;src.model.board</title>
<path fill="none" stroke="black" d="M1419,-180.49C1419,-207.29 1419,-260.13 1419,-305 1419,-305 1419,-305 1419,-379 1419,-421.8 1395.86,-466.68 1378.57,-494.25"/>
<polygon fill="black" stroke="black" points="1373.18,-502.57 1374.84,-491.73 1375.23,-499.4 1378.61,-494.18 1378.61,-494.18 1378.61,-494.18 1375.23,-499.4 1382.39,-496.63 1373.18,-502.57"/>
</g>
<!-- src.controller.game&#45;&gt;src.model.enums.color -->
<g id="edge7" class="edge">
<title>src.controller.game&#45;&gt;src.model.enums.color</title>
<path fill="none" stroke="black" d="M1481.1,-163.45C1661.78,-165.26 2178.4,-174.07 2241,-216 2401.01,-323.19 2488.81,-433.29 2417,-612 2400.48,-653.13 2388.39,-665.75 2348,-684 2241.73,-732.02 1438.01,-736.81 1174.43,-737.07"/>
<polygon fill="black" stroke="black" points="1164.63,-737.08 1174.63,-732.57 1168.41,-737.08 1174.63,-737.07 1174.63,-737.07 1174.63,-737.07 1168.41,-737.08 1174.63,-741.57 1164.63,-737.08"/>
</g>
<!-- src.model.enums.game_result -->
<g id="node22" class="node">
<title>src.model.enums.game_result</title>
<polygon fill="none" stroke="black" points="2257.88,-684 2076.12,-684 2076.12,-648 2257.88,-648 2257.88,-684"/>
<text text-anchor="middle" x="2167" y="-660.58" font-family="Times New Roman,serif" font-size="14.00">src.model.enums.game_result</text>
</g>
<!-- src.controller.game&#45;&gt;src.model.enums.game_result -->
<g id="edge8" class="edge">
<title>src.controller.game&#45;&gt;src.model.enums.game_result</title>
<path fill="none" stroke="black" d="M1481.1,-167.76C1665.66,-182.75 2198,-232.27 2198,-305 2198,-305 2198,-305 2198,-523 2198,-563.54 2185.79,-609.13 2176.69,-637.46"/>
<polygon fill="black" stroke="black" points="2173.66,-646.62 2172.53,-635.71 2174.85,-643.03 2176.8,-637.13 2176.8,-637.13 2176.8,-637.13 2174.85,-643.03 2181.08,-638.54 2173.66,-646.62"/>
</g>
<!-- src.controller.game&#45;&gt;src.model.enums.piece_type -->
<g id="edge9" class="edge">
<title>src.controller.game&#45;&gt;src.model.enums.piece_type</title>
<path fill="none" stroke="black" d="M1357.11,-162.6C1084,-161.63 0,-166.51 0,-305 0,-305 0,-305 0,-595 0,-650.01 37.38,-658.28 86,-684 150.25,-717.98 231.59,-730.91 294.55,-735.52"/>
<polygon fill="black" stroke="black" points="304.47,-736.18 294.19,-740 300.69,-735.93 294.49,-735.51 294.49,-735.51 294.49,-735.51 300.69,-735.93 294.79,-731.02 304.47,-736.18"/>
</g>
<!-- src.model.enums.player_type -->
<g id="node24" class="node">
<title>src.model.enums.player_type</title>
<polygon fill="none" stroke="black" points="2499.12,-252 2318.88,-252 2318.88,-216 2499.12,-216 2499.12,-252"/>
<text text-anchor="middle" x="2409" y="-228.57" font-family="Times New Roman,serif" font-size="14.00">src.model.enums.player_type</text>
</g>
<!-- src.controller.game&#45;&gt;src.model.enums.player_type -->
<g id="edge10" class="edge">
<title>src.controller.game&#45;&gt;src.model.enums.player_type</title>
<path fill="none" stroke="black" d="M1480.95,-164.53C1625.62,-168.57 1996.79,-181.68 2305,-216 2305.84,-216.09 2306.67,-216.19 2307.52,-216.29"/>
<polygon fill="black" stroke="black" points="2317.39,-217.5 2306.92,-220.75 2313.64,-217.04 2307.47,-216.28 2307.47,-216.28 2307.47,-216.28 2313.64,-217.04 2308.02,-211.81 2317.39,-217.5"/>
</g>
<!-- src.model.pieces.pawn -->
<g id="node29" class="node">
<title>src.model.pieces.pawn</title>
<polygon fill="none" stroke="black" points="930.12,-540 785.88,-540 785.88,-504 930.12,-504 930.12,-540"/>
<text text-anchor="middle" x="858" y="-516.58" font-family="Times New Roman,serif" font-size="14.00">src.model.pieces.pawn</text>
</g>
<!-- src.controller.game&#45;&gt;src.model.pieces.pawn -->
<g id="edge11" class="edge">
<title>src.controller.game&#45;&gt;src.model.pieces.pawn</title>
<path fill="none" stroke="black" d="M1357.02,-177.08C1262.98,-201.04 1082.67,-257.39 964,-360 919.95,-398.09 886.81,-458.78 870.1,-493.75"/>
<polygon fill="black" stroke="black" points="865.96,-502.62 866.11,-491.65 867.56,-499.19 870.19,-493.56 870.19,-493.56 870.19,-493.56 867.56,-499.19 874.27,-495.46 865.96,-502.62"/>
</g>
<!-- src.model.players.alpha_beta_player -->
<g id="node34" class="node">
<title>src.model.players.alpha_beta_player</title>
<polygon fill="none" stroke="black" points="752,-252 532,-252 532,-216 752,-216 752,-252"/>
<text text-anchor="middle" x="642" y="-228.57" font-family="Times New Roman,serif" font-size="14.00">src.model.players.alpha_beta_player</text>
</g>
<!-- src.controller.game&#45;&gt;src.model.players.alpha_beta_player -->
<g id="edge12" class="edge">
<title>src.controller.game&#45;&gt;src.model.players.alpha_beta_player</title>
<path fill="none" stroke="black" d="M1357.22,-166.87C1241.19,-174.4 982.81,-192.36 766,-216 765.17,-216.09 764.34,-216.18 763.5,-216.27"/>
<polygon fill="black" stroke="black" points="753.71,-217.4 763.13,-211.79 757.47,-216.97 763.65,-216.26 763.65,-216.26 763.65,-216.26 757.47,-216.97 764.16,-220.73 753.71,-217.4"/>
</g>
<!-- src.model.players.greedy_player -->
<g id="node35" class="node">
<title>src.model.players.greedy_player</title>
<polygon fill="none" stroke="black" points="1170.75,-396 973.25,-396 973.25,-360 1170.75,-360 1170.75,-396"/>
<text text-anchor="middle" x="1072" y="-372.57" font-family="Times New Roman,serif" font-size="14.00">src.model.players.greedy_player</text>
</g>
<!-- src.controller.game&#45;&gt;src.model.players.greedy_player -->
<g id="edge13" class="edge">
<title>src.controller.game&#45;&gt;src.model.players.greedy_player</title>
<path fill="none" stroke="black" d="M1390.9,-180.33C1328.8,-218.63 1179.85,-310.49 1109.72,-353.74"/>
<polygon fill="black" stroke="black" points="1101.4,-358.87 1107.55,-349.79 1104.62,-356.88 1109.91,-353.62 1109.91,-353.62 1109.91,-353.62 1104.62,-356.88 1112.28,-357.45 1101.4,-358.87"/>
</g>
<!-- src.model.players.player -->
<g id="node36" class="node">
<title>src.model.players.player</title>
<polygon fill="none" stroke="black" points="740.25,-468 587.75,-468 587.75,-432 740.25,-432 740.25,-468"/>
<text text-anchor="middle" x="664" y="-444.57" font-family="Times New Roman,serif" font-size="14.00">src.model.players.player</text>
</g>
<!-- src.controller.game&#45;&gt;src.model.players.player -->
<g id="edge14" class="edge">
<title>src.controller.game&#45;&gt;src.model.players.player</title>
<path fill="none" stroke="black" d="M1357.12,-165.91C1243.81,-171.85 1007.62,-187.33 931,-216 826.03,-255.27 802.66,-280.18 724,-360 705.79,-378.48 689.64,-403.18 678.7,-421.87"/>
<polygon fill="black" stroke="black" points="673.78,-430.5 674.82,-419.58 675.65,-427.22 678.73,-421.81 678.73,-421.81 678.73,-421.81 675.65,-427.22 682.64,-424.04 673.78,-430.5"/>
</g>
<!-- src.model.players.random_player -->
<g id="node37" class="node">
<title>src.model.players.random_player</title>
<polygon fill="none" stroke="black" points="1391.38,-396 1188.62,-396 1188.62,-360 1391.38,-360 1391.38,-396"/>
<text text-anchor="middle" x="1290" y="-372.57" font-family="Times New Roman,serif" font-size="14.00">src.model.players.random_player</text>
</g>
<!-- src.controller.game&#45;&gt;src.model.players.random_player -->
<g id="edge15" class="edge">
<title>src.controller.game&#45;&gt;src.model.players.random_player</title>
<path fill="none" stroke="black" d="M1408.66,-180.15C1386.25,-217.32 1333.06,-305.56 1306.17,-350.18"/>
<polygon fill="black" stroke="black" points="1301.02,-358.72 1302.33,-347.84 1302.97,-355.49 1306.18,-350.16 1306.18,-350.16 1306.18,-350.16 1302.97,-355.49 1310.03,-352.48 1301.02,-358.72"/>
</g>
<!-- src.view.chess_gui -->
<g id="node39" class="node">
<title>src.view.chess_gui</title>
<polygon fill="none" stroke="black" points="1600.88,-540 1479.12,-540 1479.12,-504 1600.88,-504 1600.88,-540"/>
<text text-anchor="middle" x="1540" y="-516.58" font-family="Times New Roman,serif" font-size="14.00">src.view.chess_gui</text>
</g>
<!-- src.controller.game&#45;&gt;src.view.chess_gui -->
<g id="edge16" class="edge">
<title>src.controller.game&#45;&gt;src.view.chess_gui</title>
<path fill="none" stroke="black" d="M1440.1,-180.32C1467.54,-204.92 1512,-252.84 1512,-305 1512,-305 1512,-305 1512,-379 1512,-419.19 1522.93,-464.6 1531.13,-493.01"/>
<polygon fill="black" stroke="black" points="1533.99,-502.56 1526.81,-494.27 1532.9,-498.94 1531.12,-492.98 1531.12,-492.98 1531.12,-492.98 1532.9,-498.94 1535.44,-491.69 1533.99,-502.56"/>
</g>
<!-- src.controller.memento -->
<g id="node15" class="node">
<title>src.controller.memento</title>
<polygon fill="none" stroke="black" points="878.5,-396 733.5,-396 733.5,-360 878.5,-360 878.5,-396"/>
<text text-anchor="middle" x="806" y="-372.57" font-family="Times New Roman,serif" font-size="14.00">src.controller.memento</text>
</g>
<!-- src.controller.game_saver&#45;&gt;src.controller.memento -->
<g id="edge17" class="edge">
<title>src.controller.game_saver&#45;&gt;src.controller.memento</title>
<path fill="none" stroke="black" d="M616.19,-324.48C651.49,-334.25 695.65,-346.47 732.5,-356.66"/>
<polygon fill="black" stroke="black" points="742,-359.29 731.17,-360.96 738.36,-358.28 732.37,-356.63 732.37,-356.63 732.37,-356.63 738.36,-358.28 733.57,-352.29 742,-359.29"/>
</g>
<!-- src.controller.game_saver&#45;&gt;src.model.enums.piece_type -->
<g id="edge18" class="edge">
<title>src.controller.game_saver&#45;&gt;src.model.enums.piece_type</title>
<path fill="none" stroke="black" d="M472.53,-312.49C327.69,-324.61 38,-359.96 38,-449 38,-449 38,-449 38,-595 38,-650.65 189.96,-694.19 295.32,-717.7"/>
<polygon fill="black" stroke="black" points="304.81,-719.79 294.08,-722.03 301.12,-718.98 295.04,-717.64 295.04,-717.64 295.04,-717.64 301.12,-718.98 296.01,-713.24 304.81,-719.79"/>
</g>
<!-- src.model.pieces.bishop -->
<g id="node26" class="node">
<title>src.model.pieces.bishop</title>
<polygon fill="none" stroke="black" points="384.25,-540 231.75,-540 231.75,-504 384.25,-504 384.25,-540"/>
<text text-anchor="middle" x="308" y="-516.58" font-family="Times New Roman,serif" font-size="14.00">src.model.pieces.bishop</text>
</g>
<!-- src.controller.game_saver&#45;&gt;src.model.pieces.bishop -->
<g id="edge19" class="edge">
<title>src.controller.game_saver&#45;&gt;src.model.pieces.bishop</title>
<path fill="none" stroke="black" d="M472.81,-322.37C446.85,-330.32 419.29,-342.24 398,-360 355.18,-395.72 328.97,-457.35 316.58,-493.11"/>
<polygon fill="black" stroke="black" points="313.43,-502.58 312.32,-491.68 314.63,-499 316.59,-493.1 316.59,-493.1 316.59,-493.1 314.63,-499 320.86,-494.52 313.43,-502.58"/>
</g>
<!-- src.model.pieces.king -->
<g id="node27" class="node">
<title>src.model.pieces.king</title>
<polygon fill="none" stroke="black" points="653.75,-540 516.25,-540 516.25,-504 653.75,-504 653.75,-540"/>
<text text-anchor="middle" x="585" y="-516.58" font-family="Times New Roman,serif" font-size="14.00">src.model.pieces.king</text>
</g>
<!-- src.controller.game_saver&#45;&gt;src.model.pieces.king -->
<g id="edge20" class="edge">
<title>src.controller.game_saver&#45;&gt;src.model.pieces.king</title>
<path fill="none" stroke="black" d="M555.56,-324.15C561.06,-360.93 574.04,-447.71 580.78,-492.76"/>
<polygon fill="black" stroke="black" points="582.24,-502.56 576.31,-493.34 581.68,-498.82 580.76,-492.67 580.76,-492.67 580.76,-492.67 581.68,-498.82 585.21,-492.01 582.24,-502.56"/>
</g>
<!-- src.model.pieces.knight -->
<g id="node28" class="node">
<title>src.model.pieces.knight</title>
<polygon fill="none" stroke="black" points="854,-612 706,-612 706,-576 854,-576 854,-612"/>
<text text-anchor="middle" x="780" y="-588.58" font-family="Times New Roman,serif" font-size="14.00">src.model.pieces.knight</text>
</g>
<!-- src.controller.game_saver&#45;&gt;src.model.pieces.knight -->
<g id="edge21" class="edge">
<title>src.controller.game_saver&#45;&gt;src.model.pieces.knight</title>
<path fill="none" stroke="black" d="M633.11,-310.48C719.37,-315.8 849.33,-328.86 887,-360 951.18,-413.06 987.69,-472.45 939,-540 929.44,-553.26 897.65,-565.09 864.99,-574.19"/>
<polygon fill="black" stroke="black" points="855.55,-576.73 864.04,-569.78 859.2,-575.74 865.21,-574.13 865.21,-574.13 865.21,-574.13 859.2,-575.74 866.38,-578.47 855.55,-576.73"/>
</g>
<!-- src.controller.game_saver&#45;&gt;src.model.pieces.pawn -->
<g id="edge22" class="edge">
<title>src.controller.game_saver&#45;&gt;src.model.pieces.pawn</title>
<path fill="none" stroke="black" d="M582.6,-324.39C621.6,-347.64 691.94,-390.72 749,-432 777.36,-452.51 808.11,-477.94 829.7,-496.36"/>
<polygon fill="black" stroke="black" points="837.15,-502.74 826.63,-499.65 834.28,-500.28 829.56,-496.23 829.56,-496.23 829.56,-496.23 834.28,-500.28 832.49,-492.82 837.15,-502.74"/>
</g>
<!-- src.model.pieces.queen -->
<g id="node31" class="node">
<title>src.model.pieces.queen</title>
<polygon fill="none" stroke="black" points="213.62,-540 66.38,-540 66.38,-504 213.62,-504 213.62,-540"/>
<text text-anchor="middle" x="140" y="-516.58" font-family="Times New Roman,serif" font-size="14.00">src.model.pieces.queen</text>
</g>
<!-- src.controller.game_saver&#45;&gt;src.model.pieces.queen -->
<g id="edge23" class="edge">
<title>src.controller.game_saver&#45;&gt;src.model.pieces.queen</title>
<path fill="none" stroke="black" d="M472.62,-322.76C437.88,-331.25 397.4,-343.44 363,-360 285.84,-397.15 207.35,-461.26 167.26,-496.33"/>
<polygon fill="black" stroke="black" points="159.98,-502.75 164.5,-492.76 162.82,-500.25 167.48,-496.13 167.48,-496.13 167.48,-496.13 162.82,-500.25 170.46,-499.51 159.98,-502.75"/>
</g>
<!-- src.model.pieces.rook -->
<g id="node32" class="node">
<title>src.model.pieces.rook</title>
<polygon fill="none" stroke="black" points="498.25,-612 357.75,-612 357.75,-576 498.25,-576 498.25,-612"/>
<text text-anchor="middle" x="428" y="-588.58" font-family="Times New Roman,serif" font-size="14.00">src.model.pieces.rook</text>
</g>
<!-- src.controller.game_saver&#45;&gt;src.model.pieces.rook -->
<g id="edge24" class="edge">
<title>src.controller.game_saver&#45;&gt;src.model.pieces.rook</title>
<path fill="none" stroke="black" d="M545.08,-324.33C529.47,-358.54 493.77,-437.27 465,-504 456.17,-524.49 446.5,-547.78 439.26,-565.39"/>
<polygon fill="black" stroke="black" points="435.56,-574.42 435.19,-563.46 436.99,-570.92 439.35,-565.17 439.35,-565.17 439.35,-565.17 436.99,-570.92 443.52,-566.87 435.56,-574.42"/>
</g>
<!-- src.controller.game_saver&#45;&gt;src.model.players.player -->
<g id="edge25" class="edge">
<title>src.controller.game_saver&#45;&gt;src.model.players.player</title>
<path fill="none" stroke="black" d="M563.99,-324.23C575.89,-342.54 595.76,-372.08 615,-396 622.54,-405.37 631.31,-415.17 639.34,-423.76"/>
<polygon fill="black" stroke="black" points="646.2,-430.99 636.05,-426.83 643.6,-428.25 639.32,-423.73 639.32,-423.73 639.32,-423.73 643.6,-428.25 642.58,-420.64 646.2,-430.99"/>
</g>
<!-- src.controller.gui_controller&#45;&gt;src.controller.custom_types_for_type_hinting -->
<g id="edge26" class="edge">
<title>src.controller.gui_controller&#45;&gt;src.controller.custom_types_for_type_hinting</title>
<path fill="none" stroke="black" d="M1802.88,-535.03C1726.2,-545.75 1612.73,-561.6 1523.84,-574.02"/>
<polygon fill="black" stroke="black" points="1514.05,-575.39 1523.33,-569.55 1517.8,-574.86 1523.96,-574 1523.96,-574 1523.96,-574 1517.8,-574.86 1524.58,-578.46 1514.05,-575.39"/>
</g>
<!-- src.controller.gui_controller&#45;&gt;src.model.enums.color -->
<g id="edge27" class="edge">
<title>src.controller.gui_controller&#45;&gt;src.model.enums.color</title>
<path fill="none" stroke="black" d="M1974.94,-525.77C2112.89,-531.11 2371.19,-545.15 2399,-576 2409.71,-587.88 2406.43,-597.83 2399,-612 2372.91,-661.8 2348.28,-666.06 2295,-684 2189.67,-719.46 1429.85,-732.57 1174.47,-736"/>
<polygon fill="black" stroke="black" points="1164.64,-736.13 1174.58,-731.5 1168.42,-736.08 1174.64,-736 1174.64,-736 1174.64,-736 1168.42,-736.08 1174.7,-740.5 1164.64,-736.13"/>
</g>
<!-- src.controller.gui_controller&#45;&gt;src.model.enums.game_result -->
<g id="edge28" class="edge">
<title>src.controller.gui_controller&#45;&gt;src.model.enums.game_result</title>
<path fill="none" stroke="black" d="M1975.01,-531.62C2038.19,-539.66 2117.01,-553.79 2141,-576 2157.61,-591.38 2163.82,-616.71 2166.04,-636.43"/>
<polygon fill="black" stroke="black" points="2166.85,-646.34 2161.55,-636.74 2166.54,-642.57 2166.03,-636.37 2166.03,-636.37 2166.03,-636.37 2166.54,-642.57 2170.52,-636.01 2166.85,-646.34"/>
</g>
<!-- src.controller.gui_controller&#45;&gt;src.model.enums.piece_type -->
<g id="edge29" class="edge">
<title>src.controller.gui_controller&#45;&gt;src.model.enums.piece_type</title>
<path fill="none" stroke="black" d="M1904.55,-540.3C1920.43,-560.06 1940.21,-592.2 1921,-612 1874.79,-659.63 788.74,-623.67 727,-648 704.44,-656.89 707.84,-673.45 686,-684 625.85,-713.06 551.74,-726.28 493.23,-732.25"/>
<polygon fill="black" stroke="black" points="483.33,-733.2 492.86,-727.76 487.1,-732.84 493.29,-732.24 493.29,-732.24 493.29,-732.24 487.1,-732.84 493.72,-736.72 483.33,-733.2"/>
</g>
<!-- src.view.chess_gui_abs -->
<g id="node40" class="node">
<title>src.view.chess_gui_abs</title>
<polygon fill="none" stroke="black" points="1912.38,-612 1763.62,-612 1763.62,-576 1912.38,-576 1912.38,-612"/>
<text text-anchor="middle" x="1838" y="-588.58" font-family="Times New Roman,serif" font-size="14.00">src.view.chess_gui_abs</text>
</g>
<!-- src.controller.gui_controller&#45;&gt;src.view.chess_gui_abs -->
<g id="edge30" class="edge">
<title>src.controller.gui_controller&#45;&gt;src.view.chess_gui_abs</title>
<path fill="none" stroke="black" d="M1876.39,-540.3C1870.53,-548.36 1863.42,-558.11 1856.93,-567.02"/>
<polygon fill="black" stroke="black" points="1851.18,-574.91 1853.43,-564.18 1853.41,-571.85 1857.07,-566.83 1857.07,-566.83 1857.07,-566.83 1853.41,-571.85 1860.7,-569.48 1851.18,-574.91"/>
</g>
<!-- src.view.end_game_dialog -->
<g id="node41" class="node">
<title>src.view.end_game_dialog</title>
<polygon fill="none" stroke="black" points="2132.25,-612 1967.75,-612 1967.75,-576 2132.25,-576 2132.25,-612"/>
<text text-anchor="middle" x="2050" y="-588.58" font-family="Times New Roman,serif" font-size="14.00">src.view.end_game_dialog</text>
</g>
<!-- src.controller.gui_controller&#45;&gt;src.view.end_game_dialog -->
<g id="edge31" class="edge">
<title>src.controller.gui_controller&#45;&gt;src.view.end_game_dialog</title>
<path fill="none" stroke="black" d="M1929.21,-540.48C1950.62,-549.79 1977.14,-561.32 1999.87,-571.21"/>
<polygon fill="black" stroke="black" points="2008.9,-575.13 1997.94,-575.27 2005.44,-573.62 1999.73,-571.15 1999.73,-571.15 1999.73,-571.15 2005.44,-573.62 2001.53,-567.02 2008.9,-575.13"/>
</g>
<!-- src.view.promotion_dialog -->
<g id="node43" class="node">
<title>src.view.promotion_dialog</title>
<polygon fill="none" stroke="black" points="1708,-612 1542,-612 1542,-576 1708,-576 1708,-612"/>
<text text-anchor="middle" x="1625" y="-588.58" font-family="Times New Roman,serif" font-size="14.00">src.view.promotion_dialog</text>
</g>
<!-- src.controller.gui_controller&#45;&gt;src.view.promotion_dialog -->
<g id="edge32" class="edge">
<title>src.controller.gui_controller&#45;&gt;src.view.promotion_dialog</title>
<path fill="none" stroke="black" d="M1823.06,-540.48C1786.07,-550.29 1739.75,-562.57 1701.2,-572.79"/>
<polygon fill="black" stroke="black" points="1691.73,-575.31 1700.24,-568.39 1695.39,-574.34 1701.4,-572.74 1701.4,-572.74 1701.4,-572.74 1695.39,-574.34 1702.55,-577.09 1691.73,-575.31"/>
</g>
<!-- src.controller.memento&#45;&gt;src.model.enums.color -->
<g id="edge33" class="edge">
<title>src.controller.memento&#45;&gt;src.model.enums.color</title>
<path fill="none" stroke="black" d="M828.77,-396.48C878.35,-435.79 996.53,-536.47 1058,-648 1068.69,-667.39 1077.24,-690.94 1082.97,-708.94"/>
<polygon fill="black" stroke="black" points="1085.88,-718.45 1078.64,-710.2 1084.77,-714.83 1082.95,-708.88 1082.95,-708.88 1082.95,-708.88 1084.77,-714.83 1087.25,-707.57 1085.88,-718.45"/>
</g>
<!-- src.controller.memento&#45;&gt;src.model.pieces.pawn -->
<g id="edge34" class="edge">
<title>src.controller.memento&#45;&gt;src.model.pieces.pawn</title>
<path fill="none" stroke="black" d="M809.49,-396.43C813.42,-414.64 820.51,-443.87 830,-468 833.43,-476.72 837.91,-485.85 842.27,-494.04"/>
<polygon fill="black" stroke="black" points="847.07,-502.73 838.3,-496.15 845.24,-499.42 842.24,-493.97 842.24,-493.97 842.24,-493.97 845.24,-499.42 846.18,-491.8 847.07,-502.73"/>
</g>
<!-- src.controller.memento&#45;&gt;src.model.players.player -->
<g id="edge35" class="edge">
<title>src.controller.memento&#45;&gt;src.model.players.player</title>
<path fill="none" stroke="black" d="M770.53,-396.48C751.93,-405.66 728.93,-416.99 709.07,-426.78"/>
<polygon fill="black" stroke="black" points="700.11,-431.2 707.09,-422.74 703.5,-429.53 709.08,-426.78 709.08,-426.78 709.08,-426.78 703.5,-429.53 711.07,-430.82 700.11,-431.2"/>
</g>
<!-- src.controller.timer_thread&#45;&gt;src.model.enums.color -->
<g id="edge36" class="edge">
<title>src.controller.timer_thread&#45;&gt;src.model.enums.color</title>
<path fill="none" stroke="black" d="M2305.5,-612.18C2301.44,-633.11 2291.28,-667.67 2267,-684 2221.78,-714.41 1435.42,-730.94 1174.42,-735.61"/>
<polygon fill="black" stroke="black" points="1164.72,-735.78 1174.64,-731.1 1168.51,-735.71 1174.72,-735.6 1174.72,-735.6 1174.72,-735.6 1168.51,-735.71 1174.8,-740.1 1164.72,-735.78"/>
</g>
<!-- src.controller.timer_thread&#45;&gt;src.model.enums.game_result -->
<g id="edge37" class="edge">
<title>src.controller.timer_thread&#45;&gt;src.model.enums.game_result</title>
<path fill="none" stroke="black" d="M2272.78,-612.48C2254.31,-621.66 2231.47,-632.99 2211.76,-642.78"/>
<polygon fill="black" stroke="black" points="2202.86,-647.2 2209.81,-638.72 2206.25,-645.52 2211.82,-642.75 2211.82,-642.75 2211.82,-642.75 2206.25,-645.52 2213.82,-646.78 2202.86,-647.2"/>
</g>
<!-- src.main -->
<g id="node17" class="node">
<title>src.main</title>
<polygon fill="none" stroke="black" points="2440.62,-36 2377.38,-36 2377.38,0 2440.62,0 2440.62,-36"/>
<text text-anchor="middle" x="2409" y="-12.57" font-family="Times New Roman,serif" font-size="14.00">src.main</text>
</g>
<!-- src.view.main_window -->
<g id="node42" class="node">
<title>src.view.main_window</title>
<polygon fill="none" stroke="black" points="2481.12,-108 2336.88,-108 2336.88,-72 2481.12,-72 2481.12,-108"/>
<text text-anchor="middle" x="2409" y="-84.58" font-family="Times New Roman,serif" font-size="14.00">src.view.main_window</text>
</g>
<!-- src.main&#45;&gt;src.view.main_window -->
<g id="edge38" class="edge">
<title>src.main&#45;&gt;src.view.main_window</title>
<path fill="none" stroke="black" d="M2409,-36.3C2409,-43.68 2409,-52.48 2409,-60.75"/>
<polygon fill="black" stroke="black" points="2409,-70.68 2404.5,-60.68 2409,-66.9 2409,-60.68 2409,-60.68 2409,-60.68 2409,-66.9 2413.5,-60.68 2409,-70.68"/>
</g>
<!-- src.model -->
<g id="node18" class="node">
<title>src.model</title>
<polygon fill="none" stroke="black" points="2529.75,-36 2458.25,-36 2458.25,0 2529.75,0 2529.75,-36"/>
<text text-anchor="middle" x="2494" y="-12.57" font-family="Times New Roman,serif" font-size="14.00">src.model</text>
</g>
<!-- src.model.board&#45;&gt;src.controller.custom_types_for_type_hinting -->
<g id="edge39" class="edge">
<title>src.model.board&#45;&gt;src.controller.custom_types_for_type_hinting</title>
<path fill="none" stroke="black" d="M1366.92,-540.3C1369.97,-547.93 1373.63,-557.08 1377.04,-565.6"/>
<polygon fill="black" stroke="black" points="1380.71,-574.76 1372.81,-567.15 1379.3,-571.25 1376.99,-565.48 1376.99,-565.48 1376.99,-565.48 1379.3,-571.25 1381.17,-563.81 1380.71,-574.76"/>
</g>
<!-- src.model.pieces.piece -->
<g id="node30" class="node">
<title>src.model.pieces.piece</title>
<polygon fill="none" stroke="black" points="603.75,-684 460.25,-684 460.25,-648 603.75,-648 603.75,-684"/>
<text text-anchor="middle" x="532" y="-660.58" font-family="Times New Roman,serif" font-size="14.00">src.model.pieces.piece</text>
</g>
<!-- src.model.board&#45;&gt;src.model.pieces.piece -->
<g id="edge40" class="edge">
<title>src.model.board&#45;&gt;src.model.pieces.piece</title>
<path fill="none" stroke="black" d="M1309.89,-540.43C1248.83,-560.94 1142.13,-594.41 1048,-612 876.02,-644.14 829.82,-628.11 656,-648 642.71,-649.52 628.65,-651.29 614.95,-653.11"/>
<polygon fill="black" stroke="black" points="605.27,-654.41 614.58,-648.62 609.01,-653.9 615.18,-653.08 615.18,-653.08 615.18,-653.08 609.01,-653.9 615.77,-657.54 605.27,-654.41"/>
</g>
<!-- src.model.enums -->
<g id="node20" class="node">
<title>src.model.enums</title>
<polygon fill="none" stroke="black" points="2658.62,-36 2547.38,-36 2547.38,0 2658.62,0 2658.62,-36"/>
<text text-anchor="middle" x="2603" y="-12.57" font-family="Times New Roman,serif" font-size="14.00">src.model.enums</text>
</g>
<!-- src.model.pieces -->
<g id="node25" class="node">
<title>src.model.pieces</title>
<polygon fill="none" stroke="black" points="2787.25,-36 2676.75,-36 2676.75,0 2787.25,0 2787.25,-36"/>
<text text-anchor="middle" x="2732" y="-12.57" font-family="Times New Roman,serif" font-size="14.00">src.model.pieces</text>
</g>
<!-- src.model.pieces.bishop&#45;&gt;src.model.enums.piece_type -->
<g id="edge41" class="edge">
<title>src.model.pieces.bishop&#45;&gt;src.model.enums.piece_type</title>
<path fill="none" stroke="black" d="M295.27,-540.15C288.71,-550.08 281.39,-563.12 278,-576 265.77,-622.42 252.05,-643.62 278,-684 286.51,-697.24 299.24,-707.22 313.19,-714.72"/>
<polygon fill="black" stroke="black" points="321.91,-718.99 310.95,-718.63 318.51,-717.33 312.93,-714.59 312.93,-714.59 312.93,-714.59 318.51,-717.33 314.91,-710.55 321.91,-718.99"/>
</g>
<!-- src.model.pieces.bishop&#45;&gt;src.model.pieces.piece -->
<g id="edge42" class="edge">
<title>src.model.pieces.bishop&#45;&gt;src.model.pieces.piece</title>
<path fill="none" stroke="black" d="M311.44,-540.35C316.32,-560.47 327.21,-593.25 349,-612 376.83,-635.94 414.92,-649.09 449.15,-656.3"/>
<polygon fill="black" stroke="black" points="458.92,-658.2 448.24,-660.7 455.21,-657.48 449.1,-656.29 449.1,-656.29 449.1,-656.29 455.21,-657.48 449.96,-651.87 458.92,-658.2"/>
</g>
<!-- src.model.pieces.king&#45;&gt;src.model.enums.color -->
<g id="edge43" class="edge">
<title>src.model.pieces.king&#45;&gt;src.model.enums.color</title>
<path fill="none" stroke="black" d="M654.22,-531.83C724.26,-541.53 827.17,-558.13 863,-576 926.91,-607.88 922.84,-643.98 982,-684 999.35,-695.74 1019.69,-706.36 1038.08,-714.96"/>
<polygon fill="black" stroke="black" points="1046.95,-719.02 1035.98,-718.95 1043.51,-717.45 1037.85,-714.86 1037.85,-714.86 1037.85,-714.86 1043.51,-717.45 1039.72,-710.77 1046.95,-719.02"/>
</g>
<!-- src.model.pieces.king&#45;&gt;src.model.enums.piece_type -->
<g id="edge44" class="edge">
<title>src.model.pieces.king&#45;&gt;src.model.enums.piece_type</title>
<path fill="none" stroke="black" d="M573.66,-540.23C559.94,-559.93 535.14,-592.01 507,-612 472.22,-636.71 446.29,-616.06 418,-648 403.24,-664.67 397.43,-689.5 395.21,-708.71"/>
<polygon fill="black" stroke="black" points="394.34,-718.6 390.73,-708.25 394.67,-714.83 395.21,-708.64 395.21,-708.64 395.21,-708.64 394.67,-714.83 399.7,-709.03 394.34,-718.6"/>
</g>
<!-- src.model.pieces.king&#45;&gt;src.model.pieces.piece -->
<g id="edge45" class="edge">
<title>src.model.pieces.king&#45;&gt;src.model.pieces.piece</title>
<path fill="none" stroke="black" d="M578.5,-540.41C569.43,-564.71 552.89,-609.03 542.18,-637.73"/>
<polygon fill="black" stroke="black" points="538.81,-646.75 538.09,-635.81 540.13,-643.2 542.31,-637.38 542.31,-637.38 542.31,-637.38 540.13,-643.2 546.53,-638.95 538.81,-646.75"/>
</g>
<!-- src.model.pieces.king&#45;&gt;src.model.pieces.rook -->
<g id="edge46" class="edge">
<title>src.model.pieces.king&#45;&gt;src.model.pieces.rook</title>
<path fill="none" stroke="black" d="M545.79,-540.48C525.01,-549.75 499.28,-561.22 477.18,-571.07"/>
<polygon fill="black" stroke="black" points="468.1,-575.12 475.4,-566.94 471.55,-573.58 477.23,-571.05 477.23,-571.05 477.23,-571.05 471.55,-573.58 479.06,-575.16 468.1,-575.12"/>
</g>
<!-- src.model.pieces.knight&#45;&gt;src.model.enums.color -->
<g id="edge47" class="edge">
<title>src.model.pieces.knight&#45;&gt;src.model.enums.color</title>
<path fill="none" stroke="black" d="M828.11,-612.4C850.96,-621.58 878.19,-633.86 901,-648 922.18,-661.13 922.39,-671.58 944,-684 966.64,-697.01 993.04,-707.73 1017.17,-716.04"/>
<polygon fill="black" stroke="black" points="1026.55,-719.19 1015.64,-720.28 1022.97,-717.98 1017.07,-716.01 1017.07,-716.01 1017.07,-716.01 1022.97,-717.98 1018.5,-711.74 1026.55,-719.19"/>
</g>
<!-- src.model.pieces.knight&#45;&gt;src.model.enums.piece_type -->
<g id="edge48" class="edge">
<title>src.model.pieces.knight&#45;&gt;src.model.enums.piece_type</title>
<path fill="none" stroke="black" d="M730.07,-612.47C706.78,-621.58 679.15,-633.79 656,-648 634.76,-661.04 635.25,-672.77 613,-684 575.89,-702.72 531.85,-715.03 493.04,-723.03"/>
<polygon fill="black" stroke="black" points="483.43,-724.94 492.37,-718.58 487.14,-724.2 493.24,-722.99 493.24,-722.99 493.24,-722.99 487.14,-724.2 494.12,-727.4 483.43,-724.94"/>
</g>
<!-- src.model.pieces.knight&#45;&gt;src.model.pieces.piece -->
<g id="edge49" class="edge">
<title>src.model.pieces.knight&#45;&gt;src.model.pieces.piece</title>
<path fill="none" stroke="black" d="M718.06,-612.48C683.46,-622.25 640.16,-634.47 604.05,-644.66"/>
<polygon fill="black" stroke="black" points="594.75,-647.29 603.16,-640.24 598.39,-646.26 604.38,-644.57 604.38,-644.57 604.38,-644.57 598.39,-646.26 605.6,-648.9 594.75,-647.29"/>
</g>
<!-- src.model.pieces.pawn&#45;&gt;src.model.enums.color -->
<g id="edge50" class="edge">
<title>src.model.pieces.pawn&#45;&gt;src.model.enums.color</title>
<path fill="none" stroke="black" d="M909.37,-540.47C930.17,-549.11 953.57,-560.95 972,-576 996.69,-596.16 1047.07,-670.05 1073.66,-710.35"/>
<polygon fill="black" stroke="black" points="1079.06,-718.57 1069.81,-712.68 1076.99,-715.4 1073.57,-710.21 1073.57,-710.21 1073.57,-710.21 1076.99,-715.4 1077.33,-707.74 1079.06,-718.57"/>
</g>
<!-- src.model.pieces.pawn&#45;&gt;src.model.enums.piece_type -->
<g id="edge51" class="edge">
<title>src.model.pieces.pawn&#45;&gt;src.model.enums.piece_type</title>
<path fill="none" stroke="black" d="M785.82,-540.13C746.6,-549.85 697.38,-562.7 654,-576 631.12,-583.02 469.74,-633.12 451,-648 430.51,-664.27 415.16,-690.03 405.58,-709.65"/>
<polygon fill="black" stroke="black" points="401.37,-718.72 401.5,-707.76 402.97,-715.29 405.58,-709.65 405.58,-709.65 405.58,-709.65 402.97,-715.29 409.67,-711.55 401.37,-718.72"/>
</g>
<!-- src.model.pieces.pawn&#45;&gt;src.model.pieces.piece -->
<g id="edge52" class="edge">
<title>src.model.pieces.pawn&#45;&gt;src.model.pieces.piece</title>
<path fill="none" stroke="black" d="M785.83,-540.41C757.16,-548.93 724.52,-560.7 697,-576 675.22,-588.11 675.2,-598.9 654,-612 634.42,-624.1 611.6,-634.81 591.02,-643.38"/>
<polygon fill="black" stroke="black" points="581.94,-647.08 589.5,-639.14 585.44,-645.65 591.2,-643.3 591.2,-643.3 591.2,-643.3 585.44,-645.65 592.9,-647.47 581.94,-647.08"/>
</g>
<!-- src.model.pieces.piece&#45;&gt;src.model.enums.color -->
<g id="edge53" class="edge">
<title>src.model.pieces.piece&#45;&gt;src.model.enums.color</title>
<path fill="none" stroke="black" d="M604.22,-676.04C707.8,-689.01 898.09,-712.84 1007.55,-726.55"/>
<polygon fill="black" stroke="black" points="1017.33,-727.77 1006.85,-731 1013.58,-727.3 1007.41,-726.53 1007.41,-726.53 1007.41,-726.53 1013.58,-727.3 1007.97,-722.07 1017.33,-727.77"/>
</g>
<!-- src.model.pieces.piece&#45;&gt;src.model.enums.piece_type -->
<g id="edge54" class="edge">
<title>src.model.pieces.piece&#45;&gt;src.model.enums.piece_type</title>
<path fill="none" stroke="black" d="M497.53,-684.48C479.45,-693.66 457.1,-704.99 437.8,-714.78"/>
<polygon fill="black" stroke="black" points="429.11,-719.19 436,-710.65 432.49,-717.48 438.03,-714.66 438.03,-714.66 438.03,-714.66 432.49,-717.48 440.07,-718.68 429.11,-719.19"/>
</g>
<!-- src.model.pieces.queen&#45;&gt;src.model.enums.piece_type -->
<g id="edge55" class="edge">
<title>src.model.pieces.queen&#45;&gt;src.model.enums.piece_type</title>
<path fill="none" stroke="black" d="M148.52,-540.02C165.5,-572.36 206.58,-643.1 260,-684 277.34,-697.28 298.43,-707.66 318.7,-715.58"/>
<polygon fill="black" stroke="black" points="328.06,-719.07 317.12,-719.79 324.52,-717.75 318.69,-715.58 318.69,-715.58 318.69,-715.58 324.52,-717.75 320.27,-711.36 328.06,-719.07"/>
</g>
<!-- src.model.pieces.queen&#45;&gt;src.model.pieces.piece -->
<g id="edge56" class="edge">
<title>src.model.pieces.queen&#45;&gt;src.model.pieces.piece</title>
<path fill="none" stroke="black" d="M170.51,-540.49C205.8,-560.12 266.1,-591.86 321,-612 362.33,-627.16 409.75,-639.5 449.16,-648.45"/>
<polygon fill="black" stroke="black" points="458.87,-650.61 448.13,-652.82 455.18,-649.79 449.11,-648.43 449.11,-648.43 449.11,-648.43 455.18,-649.79 450.09,-644.04 458.87,-650.61"/>
</g>
<!-- src.model.pieces.rook&#45;&gt;src.model.enums.piece_type -->
<g id="edge57" class="edge">
<title>src.model.pieces.rook&#45;&gt;src.model.enums.piece_type</title>
<path fill="none" stroke="black" d="M406.04,-612.45C396.06,-621.79 385.31,-634.22 380,-648 372.41,-667.7 376.71,-691.37 382.48,-709.35"/>
<polygon fill="black" stroke="black" points="385.76,-718.57 378.17,-710.65 384.49,-715 382.41,-709.15 382.41,-709.15 382.41,-709.15 384.49,-715 386.65,-707.64 385.76,-718.57"/>
</g>
<!-- src.model.pieces.rook&#45;&gt;src.model.pieces.piece -->
<g id="edge58" class="edge">
<title>src.model.pieces.rook&#45;&gt;src.model.pieces.piece</title>
<path fill="none" stroke="black" d="M453.98,-612.48C467.1,-621.32 483.21,-632.16 497.38,-641.7"/>
<polygon fill="black" stroke="black" points="505.34,-647.06 494.54,-645.21 502.21,-644.95 497.05,-641.48 497.05,-641.48 497.05,-641.48 502.21,-644.95 499.56,-637.74 505.34,-647.06"/>
</g>
<!-- src.model.players -->
<g id="node33" class="node">
<title>src.model.players</title>
<polygon fill="none" stroke="black" points="2920.5,-36 2805.5,-36 2805.5,0 2920.5,0 2920.5,-36"/>
<text text-anchor="middle" x="2863" y="-12.57" font-family="Times New Roman,serif" font-size="14.00">src.model.players</text>
</g>
<!-- src.model.players.alpha_beta_player&#45;&gt;src.controller.game_saver -->
<g id="edge59" class="edge">
<title>src.model.players.alpha_beta_player&#45;&gt;src.controller.game_saver</title>
<path fill="none" stroke="black" d="M620,-252.3C609.09,-260.89 595.73,-271.39 583.82,-280.76"/>
<polygon fill="black" stroke="black" points="576.01,-286.9 581.09,-277.18 578.99,-284.56 583.87,-280.72 583.87,-280.72 583.87,-280.72 578.99,-284.56 586.66,-284.25 576.01,-286.9"/>
</g>
<!-- src.model.players.alpha_beta_player&#45;&gt;src.model.players.player -->
<g id="edge60" class="edge">
<title>src.model.players.alpha_beta_player&#45;&gt;src.model.players.player</title>
<path fill="none" stroke="black" d="M643.76,-252.15C647.54,-288.93 656.47,-375.71 661.1,-420.76"/>
<polygon fill="black" stroke="black" points="662.1,-430.56 656.6,-421.07 661.72,-426.79 661.08,-420.61 661.08,-420.61 661.08,-420.61 661.72,-426.79 665.56,-420.15 662.1,-430.56"/>
</g>
<!-- src.model.players.greedy_player&#45;&gt;src.model.enums.color -->
<g id="edge61" class="edge">
<title>src.model.players.greedy_player&#45;&gt;src.model.enums.color</title>
<path fill="none" stroke="black" d="M1074.44,-396.35C1077.72,-420.44 1083.43,-465.43 1086,-504 1090.9,-577.62 1091.36,-664.58 1091.21,-708.52"/>
<polygon fill="black" stroke="black" points="1091.17,-718.51 1086.71,-708.49 1091.18,-714.73 1091.21,-708.51 1091.21,-708.51 1091.21,-708.51 1091.18,-714.73 1095.71,-708.53 1091.17,-718.51"/>
</g>
<!-- src.model.players.greedy_player&#45;&gt;src.model.pieces.pawn -->
<g id="edge62" class="edge">
<title>src.model.players.greedy_player&#45;&gt;src.model.pieces.pawn</title>
<path fill="none" stroke="black" d="M1040.76,-396.47C1023.25,-406.5 1001.14,-419.53 982,-432 949.91,-452.91 914.53,-478.57 889.8,-496.96"/>
<polygon fill="black" stroke="black" points="881.85,-502.9 887.17,-493.31 884.88,-500.64 889.86,-496.92 889.86,-496.92 889.86,-496.92 884.88,-500.64 892.56,-500.52 881.85,-502.9"/>
</g>
<!-- src.model.players.greedy_player&#45;&gt;src.model.pieces.piece -->
<g id="edge63" class="edge">
<title>src.model.players.greedy_player&#45;&gt;src.model.pieces.piece</title>
<path fill="none" stroke="black" d="M1063.56,-396.29C1039.8,-442.62 967.23,-568.99 863,-612 857.25,-614.37 711.23,-637.26 615.08,-652.18"/>
<polygon fill="black" stroke="black" points="605.4,-653.68 614.59,-647.7 609.14,-653.1 615.28,-652.14 615.28,-652.14 615.28,-652.14 609.14,-653.1 615.97,-656.59 605.4,-653.68"/>
</g>
<!-- src.model.players.greedy_player&#45;&gt;src.model.players.player -->
<g id="edge64" class="edge">
<title>src.model.players.greedy_player&#45;&gt;src.model.players.player</title>
<path fill="none" stroke="black" d="M972.97,-395.99C905.42,-407.58 816.75,-422.79 751.73,-433.95"/>
<polygon fill="black" stroke="black" points="741.9,-435.64 750.99,-429.51 745.62,-435 751.75,-433.94 751.75,-433.94 751.75,-433.94 745.62,-435 752.51,-438.38 741.9,-435.64"/>
</g>
<!-- src.model.players.player&#45;&gt;src.model.board -->
<g id="edge65" class="edge">
<title>src.model.players.player&#45;&gt;src.model.board</title>
<path fill="none" stroke="black" d="M740.48,-458.69C878.24,-472.55 1165.76,-501.46 1294.82,-514.44"/>
<polygon fill="black" stroke="black" points="1304.49,-515.42 1294.09,-518.89 1300.72,-515.04 1294.54,-514.42 1294.54,-514.42 1294.54,-514.42 1300.72,-515.04 1294.99,-509.94 1304.49,-515.42"/>
</g>
<!-- src.model.players.player&#45;&gt;src.model.enums.color -->
<g id="edge66" class="edge">
<title>src.model.players.player&#45;&gt;src.model.enums.color</title>
<path fill="none" stroke="black" d="M688.72,-468.4C702.8,-478.5 720.64,-491.64 736,-504 754.89,-519.2 755.72,-528.36 777,-540 827.72,-567.74 851.11,-548.56 902,-576 966.92,-611.01 971.78,-636.26 1028,-684 1038.98,-693.32 1051.08,-703.52 1061.71,-712.46"/>
<polygon fill="black" stroke="black" points="1069.31,-718.84 1058.76,-715.85 1066.42,-716.41 1061.65,-712.41 1061.65,-712.41 1061.65,-712.41 1066.42,-716.41 1064.55,-708.96 1069.31,-718.84"/>
</g>
<!-- src.model.players.player&#45;&gt;src.model.enums.piece_type -->
<g id="edge67" class="edge">
<title>src.model.players.player&#45;&gt;src.model.enums.piece_type</title>
<path fill="none" stroke="black" d="M587.58,-465.79C549.8,-474.48 504.06,-487.12 465,-504 451.07,-510.02 356.37,-562.74 349,-576 324.73,-619.63 353.4,-677.32 374.81,-710.47"/>
<polygon fill="black" stroke="black" points="380.21,-718.53 370.9,-712.72 378.1,-715.38 374.64,-710.22 374.64,-710.22 374.64,-710.22 378.1,-715.38 378.38,-707.71 380.21,-718.53"/>
</g>
<!-- src.model.players.player&#45;&gt;src.model.pieces.bishop -->
<g id="edge68" class="edge">
<title>src.model.players.player&#45;&gt;src.model.pieces.bishop</title>
<path fill="none" stroke="black" d="M587.63,-466.02C531.18,-477.12 454.22,-492.25 395.33,-503.83"/>
<polygon fill="black" stroke="black" points="385.75,-505.71 394.69,-499.37 389.46,-504.98 395.56,-503.78 395.56,-503.78 395.56,-503.78 389.46,-504.98 396.43,-508.2 385.75,-505.71"/>
</g>
<!-- src.model.players.player&#45;&gt;src.model.pieces.king -->
<g id="edge69" class="edge">
<title>src.model.players.player&#45;&gt;src.model.pieces.king</title>
<path fill="none" stroke="black" d="M644.47,-468.3C634.88,-476.8 623.16,-487.19 612.67,-496.49"/>
<polygon fill="black" stroke="black" points="605.49,-502.85 609.99,-492.85 608.32,-500.34 612.97,-496.21 612.97,-496.21 612.97,-496.21 608.32,-500.34 615.96,-499.58 605.49,-502.85"/>
</g>
<!-- src.model.players.player&#45;&gt;src.model.pieces.knight -->
<g id="edge70" class="edge">
<title>src.model.players.player&#45;&gt;src.model.pieces.knight</title>
<path fill="none" stroke="black" d="M678.22,-468.41C698.42,-493.14 735.56,-538.59 758.95,-567.23"/>
<polygon fill="black" stroke="black" points="765.25,-574.95 755.44,-570.05 762.86,-572.02 758.92,-567.2 758.92,-567.2 758.92,-567.2 762.86,-572.02 762.41,-564.35 765.25,-574.95"/>
</g>
<!-- src.model.players.player&#45;&gt;src.model.pieces.pawn -->
<g id="edge71" class="edge">
<title>src.model.players.player&#45;&gt;src.model.pieces.pawn</title>
<path fill="none" stroke="black" d="M712.45,-468.48C738.83,-478 771.65,-489.84 799.44,-499.87"/>
<polygon fill="black" stroke="black" points="808.68,-503.2 797.75,-504.04 805.12,-501.92 799.28,-499.81 799.28,-499.81 799.28,-499.81 805.12,-501.92 800.8,-495.58 808.68,-503.2"/>
</g>
<!-- src.model.players.player&#45;&gt;src.model.pieces.piece -->
<g id="edge72" class="edge">
<title>src.model.players.player&#45;&gt;src.model.pieces.piece</title>
<path fill="none" stroke="black" d="M667.62,-468.22C670.67,-486.77 673.1,-516.76 663,-540 643.95,-583.82 601.34,-619.67 569.87,-641.57"/>
<polygon fill="black" stroke="black" points="561.91,-646.95 567.67,-637.62 565.04,-644.83 570.19,-641.35 570.19,-641.35 570.19,-641.35 565.04,-644.83 572.71,-645.07 561.91,-646.95"/>
</g>
<!-- src.model.players.player&#45;&gt;src.model.pieces.queen -->
<g id="edge73" class="edge">
<title>src.model.players.player&#45;&gt;src.model.pieces.queen</title>
<path fill="none" stroke="black" d="M587.64,-458.25C501.83,-466.83 358.13,-482.49 224.54,-503.83"/>
<polygon fill="black" stroke="black" points="214.91,-505.38 224.07,-499.35 218.64,-504.78 224.78,-503.79 224.78,-503.79 224.78,-503.79 218.64,-504.78 225.5,-508.23 214.91,-505.38"/>
</g>
<!-- src.model.players.player&#45;&gt;src.model.pieces.rook -->
<g id="edge74" class="edge">
<title>src.model.players.player&#45;&gt;src.model.pieces.rook</title>
<path fill="none" stroke="black" d="M587.27,-468.23C560.48,-476.43 531.1,-488.03 507,-504 481.99,-520.57 459.93,-546.99 445.52,-566.74"/>
<polygon fill="black" stroke="black" points="439.79,-574.84 441.9,-564.08 441.98,-571.75 445.57,-566.68 445.57,-566.68 445.57,-566.68 441.98,-571.75 449.24,-569.28 439.79,-574.84"/>
</g>
<!-- src.model.players.random_player&#45;&gt;src.model.enums.color -->
<g id="edge75" class="edge">
<title>src.model.players.random_player&#45;&gt;src.model.enums.color</title>
<path fill="none" stroke="black" d="M1252.32,-396.44C1210.25,-418.81 1148,-461.91 1148,-521 1148,-521 1148,-521 1148,-595 1148,-637.59 1125.65,-682.52 1108.94,-710.16"/>
<polygon fill="black" stroke="black" points="1103.73,-718.49 1105.21,-707.63 1105.74,-715.29 1109.03,-710.01 1109.03,-710.01 1109.03,-710.01 1105.74,-715.29 1112.85,-712.4 1103.73,-718.49"/>
</g>
<!-- src.model.players.random_player&#45;&gt;src.model.pieces.piece -->
<g id="edge76" class="edge">
<title>src.model.players.random_player&#45;&gt;src.model.pieces.piece</title>
<path fill="none" stroke="black" d="M1222.21,-396.45C1194,-405.12 1161.49,-416.98 1134,-432 1021.31,-493.57 1026.06,-561.49 908,-612 799.53,-658.41 761.78,-631.22 645,-648 635.27,-649.4 625.06,-650.89 614.94,-652.39"/>
<polygon fill="black" stroke="black" points="605.22,-653.84 614.45,-647.92 608.96,-653.28 615.11,-652.37 615.11,-652.37 615.11,-652.37 608.96,-653.28 615.77,-656.82 605.22,-653.84"/>
</g>
<!-- src.model.players.random_player&#45;&gt;src.model.players.player -->
<g id="edge77" class="edge">
<title>src.model.players.random_player&#45;&gt;src.model.players.player</title>
<path fill="none" stroke="black" d="M1188.14,-394.93C1185.4,-395.3 1182.68,-395.66 1180,-396 1029.83,-415.3 854.35,-432.11 751.58,-441.38"/>
<polygon fill="black" stroke="black" points="741.85,-442.25 751.41,-436.87 745.62,-441.91 751.81,-441.35 751.81,-441.35 751.81,-441.35 745.62,-441.91 752.21,-445.84 741.85,-442.25"/>
</g>
<!-- src.view -->
<g id="node38" class="node">
<title>src.view</title>
<polygon fill="none" stroke="black" points="3001.25,-36 2938.75,-36 2938.75,0 3001.25,0 3001.25,-36"/>
<text text-anchor="middle" x="2970" y="-12.57" font-family="Times New Roman,serif" font-size="14.00">src.view</text>
</g>
<!-- src.view.chess_gui&#45;&gt;src.model.enums.color -->
<g id="edge78" class="edge">
<title>src.view.chess_gui&#45;&gt;src.model.enums.color</title>
<path fill="none" stroke="black" d="M1601.35,-530.96C1665.07,-541.87 1751.06,-565.64 1717,-612 1653.63,-698.23 1329.64,-725.5 1174.29,-733.69"/>
<polygon fill="black" stroke="black" points="1164.62,-734.18 1174.38,-729.18 1168.4,-733.99 1174.61,-733.67 1174.61,-733.67 1174.61,-733.67 1168.4,-733.99 1174.84,-738.17 1164.62,-734.18"/>
</g>
<!-- src.view.chess_gui&#45;&gt;src.view.chess_gui_abs -->
<g id="edge79" class="edge">
<title>src.view.chess_gui&#45;&gt;src.view.chess_gui_abs</title>
<path fill="none" stroke="black" d="M1601.02,-537.33C1644.8,-547.62 1704.35,-561.61 1752.81,-572.99"/>
<polygon fill="black" stroke="black" points="1762.41,-575.24 1751.65,-577.34 1758.73,-574.38 1752.68,-572.96 1752.68,-572.96 1752.68,-572.96 1758.73,-574.38 1753.7,-568.58 1762.41,-575.24"/>
</g>
<!-- src.view.square -->
<g id="node44" class="node">
<title>src.view.square</title>
<polygon fill="none" stroke="black" points="1478.5,-684 1375.5,-684 1375.5,-648 1478.5,-648 1478.5,-684"/>
<text text-anchor="middle" x="1427" y="-660.58" font-family="Times New Roman,serif" font-size="14.00">src.view.square</text>
</g>
<!-- src.view.chess_gui&#45;&gt;src.view.square -->
<g id="edge80" class="edge">
<title>src.view.chess_gui&#45;&gt;src.view.square</title>
<path fill="none" stroke="black" d="M1478.66,-531.9C1393.93,-544.5 1250.56,-566.98 1243,-576 1204.53,-621.94 1296.86,-646 1364.17,-657.05"/>
<polygon fill="black" stroke="black" points="1373.95,-658.59 1363.37,-661.48 1370.22,-658 1364.07,-657.04 1364.07,-657.04 1364.07,-657.04 1370.22,-658 1364.77,-652.59 1373.95,-658.59"/>
</g>
<!-- src.view.end_game_dialog&#45;&gt;src.model.enums.game_result -->
<g id="edge81" class="edge">
<title>src.view.end_game_dialog&#45;&gt;src.model.enums.game_result</title>
<path fill="none" stroke="black" d="M2079.22,-612.48C2094.27,-621.49 2112.81,-632.58 2128.96,-642.24"/>
<polygon fill="black" stroke="black" points="2137.1,-647.11 2126.21,-645.84 2133.86,-645.17 2128.52,-641.98 2128.52,-641.98 2128.52,-641.98 2133.86,-645.17 2130.83,-638.12 2137.1,-647.11"/>
</g>
<!-- src.view.main_window&#45;&gt;src.controller.game -->
<g id="edge82" class="edge">
<title>src.view.main_window&#45;&gt;src.controller.game</title>
<path fill="none" stroke="black" d="M2336.6,-96.12C2153.88,-109.04 1675.57,-142.86 1492.09,-155.83"/>
<polygon fill="black" stroke="black" points="1482.18,-156.53 1491.84,-151.34 1485.95,-156.27 1492.15,-155.83 1492.15,-155.83 1492.15,-155.83 1485.95,-156.27 1492.47,-160.32 1482.18,-156.53"/>
</g>
<!-- src.view.main_window&#45;&gt;src.model.enums.color -->
<g id="edge83" class="edge">
<title>src.view.main_window&#45;&gt;src.model.enums.color</title>
<path fill="none" stroke="black" d="M2437.87,-108.41C2472.8,-131.93 2527,-177.39 2527,-233 2527,-233 2527,-233 2527,-595 2527,-668.36 2457.97,-661.96 2388,-684 2272.92,-720.25 1442.72,-732.94 1174.4,-736.12"/>
<polygon fill="black" stroke="black" points="1164.79,-736.23 1174.74,-731.62 1168.57,-736.19 1174.79,-736.12 1174.79,-736.12 1174.79,-736.12 1168.57,-736.19 1174.84,-740.62 1164.79,-736.23"/>
</g>
<!-- src.view.main_window&#45;&gt;src.model.enums.player_type -->
<g id="edge84" class="edge">
<title>src.view.main_window&#45;&gt;src.model.enums.player_type</title>
<path fill="none" stroke="black" d="M2409,-108.41C2409,-132.5 2409,-176.25 2409,-204.97"/>
<polygon fill="black" stroke="black" points="2409,-214.67 2404.5,-204.67 2409,-210.89 2409,-204.67 2409,-204.67 2409,-204.67 2409,-210.89 2413.5,-204.67 2409,-214.67"/>
</g>
<!-- src.view.promotion_dialog&#45;&gt;src.model.enums.piece_type -->
<g id="edge85" class="edge">
<title>src.view.promotion_dialog&#45;&gt;src.model.enums.piece_type</title>
<path fill="none" stroke="black" d="M1541.83,-610.91C1538.86,-611.3 1535.91,-611.67 1533,-612 1347.57,-633.01 868.73,-582.47 694,-648 670.02,-656.99 672.17,-673.09 649,-684 600.31,-706.91 541.79,-719.97 493.09,-727.39"/>
<polygon fill="black" stroke="black" points="483.43,-728.81 492.67,-722.91 487.17,-728.26 493.32,-727.36 493.32,-727.36 493.32,-727.36 487.17,-728.26 493.97,-731.81 483.43,-728.81"/>
</g>
<!-- src.view.promotion_dialog&#45;&gt;src.view.square -->
<g id="edge86" class="edge">
<title>src.view.promotion_dialog&#45;&gt;src.view.square</title>
<path fill="none" stroke="black" d="M1575.55,-612.48C1548.51,-622.04 1514.84,-633.95 1486.39,-644"/>
<polygon fill="black" stroke="black" points="1477.31,-647.21 1485.24,-639.64 1480.88,-645.95 1486.74,-643.88 1486.74,-643.88 1486.74,-643.88 1480.88,-645.95 1488.24,-648.12 1477.31,-647.21"/>
</g>
</g>
</svg>
